<?xml version="1.0" encoding="UTF-8"?>
<svg id="Layer_1" xmlns="http://www.w3.org/2000/svg" version="1.1" viewBox="0 0 780.08 801.42">
  <!-- Generator: Adobe Illustrator 30.6.0, SVG Export Plug-In . SVG Version: 2.1.4 Build 109)  -->
  <defs>
    <style>
      .st0 {
        fill: #93278f;
      }
    </style>
  </defs>
  <path class="st0" d="M697.09,480.23l-42.16,28.08-27.86,18.35c-.26.17-.8.67-1.04.63-.26-.05-.32-.48-.15-.86l6.39-13.82,11.92-32.15c15.08-51.13,15.3-103.89.98-155.18-2.84-10.18-6.28-19.66-10.43-29.47-.41-.53.37-1.06.8-.22l50.94,34.07,92.06,61.51c.78.52,1.36.68,1.47.28.17-.58-.13-1.56-.13-2.1-.16-15.37-1.71-30.02-3.78-45.2-2.19-16.04-4.84-31.44-8.97-47.07l-12.3-39.83c-6.04-16.58-13.12-32.32-21.11-48.04-6.31-12.44-13.29-23.96-20.88-35.69-13.17-20.37-28.57-38.8-45.22-56.27l-8.93-8.94-21.75-19.52c-32.53-27.31-69.23-48.68-109.06-63.79-24.5-9.29-49.99-16.19-76.02-20.21-101.37-15.67-203.9,7.17-287.13,67.31-12.86,9.3-25.3,18.7-36.47,29.87l-21.91,21.91c-15.32,16.8-29.55,34.59-41.83,53.91-25.33,39.86-43.71,83.85-54.09,129.96-12.26,54.45-13.94,112.05-3.88,166.89,4.96,27.05,12.15,53.38,22.3,78.82l15.61,35.06c6.35,12.31,12.79,24.01,20.38,35.62,12.18,18.63,25.36,35.99,40.56,52.24l20.67,20.7c25.26,23.48,53.35,43.68,83.93,59.88,51.45,27.26,108.47,42.09,166.62,44.2,22.94.83,45.64-.49,68.45-3.72,78.41-11.13,150-45.84,207.95-99.39l21.2-21.2c24.05-25.72,44.06-54.7,60.24-86.06,13.3-25.78,23.43-52.85,31.17-80.79,4.8-17.35,8.14-34.53,10.63-52.31l3.4-32.29-9.09,5.92-73.49,48.9ZM390.07,624.57c-123.71,0-223.99-100.28-223.99-223.99s100.28-223.99,223.99-223.99,223.99,100.28,223.99,223.99-100.28,223.99-223.99,223.99Z"/>
</svg>